0
SECTION
2
HEADER
9
$INSUNITS
70
4
9
$ACADVER
1
AC1014
9
$HANDSEED
5
FFFF
0
ENDSEC
0
SECTION
2
TABLES
0
TABLE
2
VPORT
5
8
100
AcDbSymbolTable
0
ENDTAB
0
TABLE
2
LTYPE
5
5
100
AcDbSymbolTable
0
LTYPE
5
14
100
AcDbSymbolTableRecord
100
AcDbLinetypeTableRecord
2
BYBLOCK
70
0
0
LTYPE
5
15
100
AcDbSymbolTableRecord
100
AcDbLinetypeTableRecord
2
BYLAYER
70
0
0
ENDTAB
0
TABLE
2
LAYER
5
2
100
AcDbSymbolTable
70
2
0
LAYER
5
50
100
AcDbSymbolTableRecord
100
AcDbLayerTableRecord
2
0
70
0
6
CONTINUOUS
0
ENDTAB
0
TABLE
2
STYLE
5
3
100
AcDbSymbolTable
70
1
0
STYLE
5
11
100
AcDbSymbolTableRecord
100
AcDbTextStyleTableRecord
2
STANDARD
70
0
0
ENDTAB
0
TABLE
2
VIEW
5
6
100
AcDbSymbolTable
70
0
0
ENDTAB
0
TABLE
2
UCS
5
7
100
AcDbSymbolTable
70
0
0
ENDTAB
0
TABLE
2
APPID
5
9
100
AcDbSymbolTable
70
2
0
APPID
5
12
100
AcDbSymbolTableRecord
100
AcDbRegAppTableRecord
2
ACAD
70
0
0
ENDTAB
0
TABLE
2
DIMSTYLE
5
A
100
AcDbSymbolTable
70
1
0
ENDTAB
0
TABLE
2
BLOCK_RECORD
5
1
100
AcDbSymbolTable
70
1
0
BLOCK_RECORD
5
1F
100
AcDbSymbolTableRecord
100
AcDbBlockTableRecord
2
*MODEL_SPACE
0
BLOCK_RECORD
5
1B
100
AcDbSymbolTableRecord
100
AcDbBlockTableRecord
2
*PAPER_SPACE
0
ENDTAB
0
ENDSEC
0
SECTION
2
BLOCKS
0
BLOCK
5
20
100
AcDbEntity
100
AcDbBlockBegin
2
*MODEL_SPACE
0
ENDBLK
5
21
100
AcDbEntity
100
AcDbBlockEnd
0
BLOCK
5
1C
100
AcDbEntity
100
AcDbBlockBegin
2
*PAPER_SPACE
0
ENDBLK
5
1D
100
AcDbEntity
100
AcDbBlockEnd
0
ENDSEC
0
SECTION
2
ENTITIES
0
LWPOLYLINE
5
100
100
AcDbEntity
8
0
100
AcDbPolyline
90
176
70
1
43
0.0
10
68.59999999999998
20
-185.00000000000006
10
68.59999999999998
20
-177.50000000000006
10
71.474000000000004
20
-177.50000000000006
10
71.474000000000004
20
-170.00000000000006
10
68.59999999999998
20
-170.00000000000006
10
68.59999999999998
20
-168.00000000000009
10
61.399999999999999
20
-168.00000000000009
10
61.399999999999999
20
-170.00000000000006
10
58.525999999999982
20
-170.00000000000006
10
58.525999999999982
20
-177.50000000000006
10
61.399999999999999
20
-177.50000000000006
10
61.399999999999999
20
-185.00000000000006
10
-61.399999999999999
20
-185.00000000000006
10
-61.399999999999999
20
-177.50000000000006
10
-58.525999999999982
20
-177.50000000000006
10
-58.525999999999982
20
-170.00000000000006
10
-61.399999999999999
20
-170.00000000000006
10
-61.399999999999999
20
-168.00000000000009
10
-68.59999999999998
20
-168.00000000000009
10
-68.59999999999998
20
-170.00000000000006
10
-71.474000000000004
20
-170.00000000000006
10
-71.474000000000004
20
-177.50000000000006
10
-68.59999999999998
20
-177.50000000000006
10
-68.599999999999994
20
-185.00000000000006
10
-148.90000000000003
20
-185
10
-148.90000000000003
20
-177.5
10
-146.02600000000001
20
-177.5
10
-146.02600000000001
20
-170
10
-148.90000000000003
20
-170
10
-148.90000000000003
20
-168
10
-156.10000000000008
20
-168
10
-156.10000000000008
20
-170
10
-158.97400000000007
20
-170
10
-158.97400000000007
20
-177.5
10
-156.10000000000008
20
-177.5
10
-156.10000000000008
20
-185
10
-181
20
-184.99999999999994
42
-0.41421356237309509
10
-185
20
-180.99999999999994
10
-185.00000000000003
20
-156.10000000000002
10
-177.50000000000003
20
-156.10000000000002
10
-177.50000000000003
20
-158.97400000000005
10
-170.00000000000003
20
-158.97400000000005
10
-170.00000000000003
20
-156.10000000000002
10
-168.00000000000006
20
-156.10000000000002
10
-168.00000000000006
20
-148.90000000000001
10
-170.00000000000003
20
-148.90000000000001
10
-170.00000000000003
20
-146.02599999999998
10
-177.50000000000003
20
-146.02599999999998
10
-177.50000000000003
20
-148.90000000000001
10
-185.00000000000003
20
-148.90000000000001
10
-185.00000000000006
20
-119.99999999999999
10
-194.52500000000009
20
-119.99999999999999
10
-248.08095639097431
20
-82.499715619009351
42
-0.24469844322903336
10
-264.52500000000009
20
-50.911001750936443
10
-264.52500000000009
20
-25.890442251919879
42
-0.14192365839860091
10
-262.60175500471405
20
-19.251287120353624
42
0.28968218955177522
10
-262.60175500471411
20
19.251287120353648
42
-0.14192365839860405
10
-264.52500000000009
20
25.890442251919872
10
-264.52500000000009
20
50.911001750936471
42
-0.24469844322903336
10
-248.08095639097431
20
82.499715619009379
10
-194.52500000000009
20
120.00000000000001
10
-185.00000000000006
20
120.00000000000001
10
-184.99999999999997
20
148.90000000000009
10
-177.49999999999997
20
148.90000000000009
10
-177.49999999999997
20
146.02600000000007
10
-169.99999999999997
20
146.02600000000007
10
-169.99999999999997
20
148.90000000000009
10
-167.99999999999997
20
148.90000000000009
10
-167.99999999999997
20
156.10000000000011
10
-169.99999999999997
20
156.10000000000011
10
-169.99999999999997
20
158.9740000000001
10
-177.49999999999997
20
158.9740000000001
10
-177.49999999999997
20
156.10000000000011
10
-184.99999999999997
20
156.10000000000011
10
-185
20
181.00000000000009
42
-0.41421356237309509
10
-181
20
185.00000000000006
10
-156.10000000000005
20
185.00000000000003
10
-156.10000000000005
20
177.50000000000003
10
-158.97400000000007
20
177.50000000000003
10
-158.97400000000007
20
170.00000000000003
10
-156.10000000000005
20
170.00000000000003
10
-156.10000000000005
20
168.00000000000006
10
-148.90000000000003
20
168.00000000000006
10
-148.90000000000003
20
170.00000000000003
10
-146.02600000000001
20
170.00000000000003
10
-146.02600000000001
20
177.50000000000003
10
-148.90000000000003
20
177.50000000000003
10
-148.90000000000003
20
185.00000000000003
10
-68.59999999999998
20
185.00000000000006
10
-68.59999999999998
20
177.50000000000006
10
-71.474000000000004
20
177.50000000000006
10
-71.474000000000004
20
170.00000000000006
10
-68.59999999999998
20
170.00000000000006
10
-68.59999999999998
20
168.00000000000009
10
-61.399999999999999
20
168.00000000000009
10
-61.399999999999999
20
170.00000000000006
10
-58.525999999999982
20
170.00000000000006
10
-58.525999999999982
20
177.50000000000006
10
-61.399999999999999
20
177.50000000000006
10
-61.399999999999999
20
185.00000000000006
10
61.399999999999999
20
185.00000000000006
10
61.399999999999999
20
177.50000000000006
10
58.525999999999982
20
177.50000000000006
10
58.525999999999982
20
170.00000000000006
10
61.399999999999999
20
170.00000000000006
10
61.399999999999999
20
168.00000000000009
10
68.59999999999998
20
168.00000000000009
10
68.59999999999998
20
170.00000000000006
10
71.474000000000004
20
170.00000000000006
10
71.474000000000004
20
177.50000000000006
10
68.59999999999998
20
177.50000000000006
10
68.59999999999998
20
185.00000000000006
10
148.90000000000006
20
184.99999999999997
10
148.90000000000006
20
177.49999999999997
10
146.02600000000004
20
177.49999999999997
10
146.02600000000004
20
169.99999999999997
10
148.90000000000006
20
169.99999999999997
10
148.90000000000006
20
167.99999999999997
10
156.10000000000008
20
167.99999999999997
10
156.10000000000008
20
169.99999999999997
10
158.9740000000001
20
169.99999999999997
10
158.9740000000001
20
177.49999999999997
10
156.10000000000008
20
177.49999999999997
10
156.10000000000008
20
184.99999999999997
10
181
20
185.00000000000006
42
-0.41421356237309509
10
185
20
181.00000000000009
10
185
20
156.10000000000005
10
177.5
20
156.10000000000005
10
177.5
20
158.97400000000007
10
170
20
158.97400000000007
10
170
20
156.10000000000005
10
168
20
156.10000000000005
10
168
20
148.90000000000003
10
170
20
148.90000000000003
10
170
20
146.02600000000001
10
177.5
20
146.02600000000001
10
177.5
20
148.90000000000003
10
185
20
148.90000000000003
10
185.00000000000011
20
119.99999999999997
10
194.52500000000012
20
119.99999999999997
10
248.08095639097431
20
82.499715619009322
42
-0.24469844322903384
10
264.52500000000009
20
50.911001750936421
10
264.52500000000009
20
25.890442251919843
42
-0.14192365839860036
10
262.60175500471405
20
19.251287120353592
42
0.28968218955177527
10
262.60175500471411
20
-19.25128712035368
42
-0.14192365839860405
10
264.52500000000009
20
-25.890442251919904
10
264.52500000000009
20
-50.911001750936506
42
-0.24469844322903406
10
248.08095639097431
20
-82.499715619009422
10
194.52500000000003
20
-120.00000000000003
10
185.00000000000003
20
-120.00000000000003
10
185
20
-148.90000000000006
10
177.5
20
-148.90000000000006
10
177.5
20
-146.02600000000004
10
170
20
-146.02600000000004
10
170
20
-148.90000000000006
10
168
20
-148.90000000000006
10
168
20
-156.10000000000008
10
170
20
-156.10000000000008
10
170
20
-158.9740000000001
10
177.5
20
-158.9740000000001
10
177.5
20
-156.10000000000008
10
185
20
-156.10000000000008
10
185
20
-180.99999999999994
42
-0.41421356237309509
10
181
20
-184.99999999999994
10
156.10000000000008
20
-185
10
156.10000000000008
20
-177.5
10
158.97400000000007
20
-177.5
10
158.97400000000007
20
-170
10
156.10000000000008
20
-170
10
156.10000000000008
20
-168
10
148.90000000000003
20
-168
10
148.90000000000003
20
-170
10
146.02600000000001
20
-170
10
146.02600000000001
20
-177.5
10
148.90000000000003
20
-177.5
10
148.90000000000003
20
-185
0
LWPOLYLINE
5
101
100
AcDbEntity
8
0
100
AcDbPolyline
90
8
70
1
43
0.0
10
-54.699999910898157
20
51.320000191374191
10
-109.10999992164733
20
51.320000285840884
42
0.41421356288161637
10
-114.10999993032833
20
46.320000285840884
10
-114.10999993032833
20
-46.32000008152562
42
0.41421356237309509
10
-109.10999993032833
20
-51.32000008152562
10
-54.700000080420793
20
-51.32000008152562
42
0.41421356186457264
10
-49.700000080420814
20
-46.320000090206619
10
-49.699999919579163
20
46.320000182693192
42
0.41421356237309509
0
LWPOLYLINE
5
102
100
AcDbEntity
8
0
100
AcDbPolyline
90
8
70
1
43
0.0
10
109.11000007835268
20
51.319999906967119
10
54.70000008910182
20
51.320000001433812
42
0.41421356237309404
10
49.700000080420836
20
46.320000010114811
10
49.699999919579199
20
-46.3200000728446
42
0.41421356288161687
10
54.699999919579199
20
-51.320000081525606
10
109.1100000696717
20
-51.320000081525606
42
0.41421356237309448
10
114.1100000696717
20
-46.32000008152562
10
114.11000006967168
20
46.319999906967119
42
0.4142135618645737
0
LWPOLYLINE
5
103
100
AcDbEntity
8
0
100
AcDbPolyline
90
8
70
1
43
0.0
10
134.11000007308962
20
-86.320000125639297
10
164.11000007308959
20
-86.320000105131811
42
0.41421356217287669
10
169.11000006967168
20
-81.320000105131811
10
169.11000006967174
20
81.319999831703242
42
0.41421356163607892
10
164.11000008225341
20
86.319999831703242
10
134.11000008225338
20
86.319999907193093
42
0.41421356311011109
10
129.11000006967174
20
81.319999907193093
10
129.11000006967168
20
-81.320000125639297
42
0.41421356257331238
0
LWPOLYLINE
5
104
100
AcDbEntity
8
0
100
AcDbPolyline
90
8
70
1
43
0.0
10
-55
20
115.00000000386177
10
55
20
115.00000000386177
42
0.41421356237309509
10
60
20
120.00000000386177
10
60
20
150.00000000386177
42
0.41421356237309509
10
55
20
155.00000000386177
10
-55
20
155.00000000386177
42
0.41421356237309509
10
-60
20
150.00000000386177
10
-60
20
120.00000000386177
42
0.41421356237309509
0
LWPOLYLINE
5
105
100
AcDbEntity
8
0
100
AcDbPolyline
90
8
70
1
43
0.0
10
-55.000000269111126
20
-154.99999989349229
10
54.999999730888838
20
-155.00000008447438
42
0.41421356237309553
10
59.999999739569851
20
-150.00000009315536
10
59.999999791655867
20
-120.00000009315539
42
0.41421356237309509
10
54.999999800336866
20
-115.00000008447438
10
-55.000000199663091
20
-114.99999989349232
42
0.41421356237309509
10
-60.000000208344098
20
-119.9999998848113
10
-60.00000026043012
20
-149.9999998848113
42
0.41421356237309509
0
LWPOLYLINE
5
106
100
AcDbEntity
8
0
100
AcDbPolyline
90
8
70
1
43
0.0
10
-34.699999910898171
20
46.320000147969168
10
-34.699999910898221
20
-46.320000081525606
42
0.41421356237309448
10
-29.699999910898232
20
-51.320000081525606
10
29.699999999627185
20
-51.320000081525606
42
0.41421356210469568
10
34.699999999627181
20
-46.32000008610747
10
34.700000084519971
20
46.320000040256971
42
0.41421356213297306
10
29.700000093200973
20
51.320000044838835
10
-29.699999902217176
20
51.320000147969168
42
0.41421356288161609
0
LWPOLYLINE
5
107
100
AcDbEntity
8
0
100
AcDbPolyline
90
8
70
1
43
0.0
10
-134.10999978179154
20
86.320000392298297
10
-164.10999978179163
20
86.320000425324977
42
0.41421356167849449
10
-169.10999978729606
20
81.320000442687004
10
-169.11000035204739
20
-81.31999949414805
42
0.41421356213046218
10
-164.1100003735514
20
-86.319999511510048
10
-134.11000037355143
20
-86.319999640534121
42
0.41421356261572789
10
-129.11000035204742
20
-81.319999657896119
10
-129.109999787296
20
81.320000374936271
42
0.41421356306769558
0
CIRCLE
5
108
100
AcDbEntity
8
0
100
AcDbCircle
10
238.52500000000009
20
-4.7122878022691229e-14
30
0
40
8.5
210
0
220
-0
230
1
0
LWPOLYLINE
5
109
100
AcDbEntity
8
0
100
AcDbPolyline
90
7
70
1
43
0.0
10
237.29083447242516
20
66.15262138825608
42
-0.52056705055174612
10
237.29083447242519
20
26.833323262384457
10
219.25158069298308
20
14.202101782341163
42
-0.4001920425974736
10
203.46781700038622
20
16.595311601196066
42
-0.16625023275946199
10
199.52499999999992
20
28.125644118951829
10
199.52500000000026
20
71.311496279163379
42
-0.60681489631459318
10
216.96068983939941
20
80.387941913194396
0
LWPOLYLINE
5
110
100
AcDbEntity
8
0
100
AcDbPolyline
90
7
70
1
43
0.0
10
237.29083447242522
20
-26.833323262384567
42
-0.52056705055174535
10
237.29083447242519
20
-66.152621388256165
10
216.96068983939907
20
-80.387941913194666
42
-0.60681489631459806
10
199.52499999999989
20
-71.311496279163492
10
199.52500000000018
20
-28.125644118951591
42
-0.16625023275945891
10
203.46781700038622
20
-16.595311601196386
42
-0.40019204259747854
10
219.2515806929832
20
-14.202101782341286
0
CIRCLE
5
111
100
AcDbEntity
8
0
100
AcDbCircle
10
-238.52500000000009
20
1.7911990246028984e-14
30
0
40
8.5
210
-0
220
0
230
1
0
LWPOLYLINE
5
112
100
AcDbEntity
8
0
100
AcDbPolyline
90
7
70
1
43
0.0
10
-237.29083447242516
20
-66.152621388256108
42
-0.52056705055174624
10
-237.29083447242519
20
-26.833323262384482
10
-219.25158069298308
20
-14.20210178234119
42
-0.4001920425974736
10
-203.46781700038622
20
-16.595311601196094
42
-0.16625023275946199
10
-199.52499999999992
20
-28.125644118951854
10
-199.52500000000026
20
-71.311496279163421
42
-0.60681489631459307
10
-216.96068983939941
20
-80.387941913194425
0
LWPOLYLINE
5
113
100
AcDbEntity
8
0
100
AcDbPolyline
90
7
70
1
43
0.0
10
-237.29083447242516
20
26.833323262384503
42
-0.52056705055174624
10
-237.29083447242519
20
66.152621388256151
10
-216.96068983939907
20
80.387941913194652
42
-0.60681489631459795
10
-199.52499999999989
20
71.311496279163464
10
-199.52500000000018
20
28.125644118951563
42
-0.16625023275945858
10
-203.46781700038622
20
16.595311601196361
42
-0.40019204259747854
10
-219.2515806929832
20
14.202101782341256
0
CIRCLE
5
114
100
AcDbEntity
8
0
100
AcDbCircle
10
-70
20
148.00000000386177
30
0
40
3.6000000000000032
210
0
220
-0
230
1
0
CIRCLE
5
115
100
AcDbEntity
8
0
100
AcDbCircle
10
-70
20
122.00000000386176
30
0
40
3.6000000000000032
210
0
220
-0
230
1
0
CIRCLE
5
116
100
AcDbEntity
8
0
100
AcDbCircle
10
70
20
148.00000000386177
30
0
40
3.6000000000000032
210
0
220
-0
230
1
0
CIRCLE
5
117
100
AcDbEntity
8
0
100
AcDbCircle
10
70
20
122.00000000386176
30
0
40
3.6000000000000032
210
0
220
-0
230
1
0
CIRCLE
5
118
100
AcDbEntity
8
0
100
AcDbCircle
10
-136.10999990244079
20
96.320000395175853
30
0
40
3.5999999999999943
210
0
220
-0
230
1
0
CIRCLE
5
119
100
AcDbEntity
8
0
100
AcDbCircle
10
-162.10999990244076
20
96.320000444082268
30
0
40
3.5999999999999943
210
0
220
-0
230
1
0
CIRCLE
5
120
100
AcDbEntity
8
0
100
AcDbCircle
10
-178.11000006967174
20
-6.5881126095727884e-14
30
0
40
3.5999999999999943
210
0
220
-0
230
1
0
CIRCLE
5
121
100
AcDbEntity
8
0
100
AcDbCircle
10
-107.10999993032834
20
61.32000028236849
30
0
40
3.5999999999999943
210
0
220
-0
230
1
0
CIRCLE
5
122
100
AcDbEntity
8
0
100
AcDbCircle
10
-56.699999893536145
20
61.320000194519544
30
0
40
3.6000000000000032
210
0
220
-0
230
1
0
CIRCLE
5
123
100
AcDbEntity
8
0
100
AcDbCircle
10
-27.699999910898168
20
61.320000143981574
30
0
40
3.6000000000000032
210
0
220
-0
230
1
0
CIRCLE
5
124
100
AcDbEntity
8
0
100
AcDbCircle
10
27.700000098265562
20
61.320000047436608
30
0
40
3.6000000000000032
210
0
220
-0
230
1
0
CIRCLE
5
125
100
AcDbEntity
8
0
100
AcDbCircle
10
56.700000106463847
20
61.319999996898638
30
0
40
3.6000000000000032
210
0
220
-0
230
1
0
CIRCLE
5
126
100
AcDbEntity
8
0
100
AcDbCircle
10
107.1100000696717
20
61.319999909049692
30
0
40
3.6000000000000121
210
0
220
-0
230
1
0
CIRCLE
5
127
100
AcDbEntity
8
0
100
AcDbCircle
10
136.11000023690255
20
96.319999902836244
30
0
40
3.5999999999999943
210
0
220
-0
230
1
0
CIRCLE
5
128
100
AcDbEntity
8
0
100
AcDbCircle
10
162.11000023690252
20
96.319999857694967
30
0
40
3.5999999999999943
210
0
220
-0
230
1
0
CIRCLE
5
129
100
AcDbEntity
8
0
100
AcDbCircle
10
178.11000006967174
20
-6.5881126095727884e-14
30
0
40
3.5999999999999943
210
0
220
-0
230
1
0
CIRCLE
5
130
100
AcDbEntity
8
0
100
AcDbCircle
10
162.11000006967168
20
-96.320000124272099
30
0
40
3.5999999999999943
210
0
220
-0
230
1
0
CIRCLE
5
131
100
AcDbEntity
8
0
100
AcDbCircle
10
136.11000006967168
20
-96.320000124272127
30
0
40
3.5999999999999943
210
0
220
-0
230
1
0
CIRCLE
5
132
100
AcDbEntity
8
0
100
AcDbCircle
10
107.10999996320785
20
-61.32000008013577
30
0
40
3.6000000000000121
210
0
220
-0
230
1
0
CIRCLE
5
133
100
AcDbEntity
8
0
100
AcDbCircle
10
56.700000000000017
20
-61.320000080462833
30
0
40
3.6000000000000032
210
0
220
-0
230
1
0
CIRCLE
5
134
100
AcDbEntity
8
0
100
AcDbCircle
10
27.699999991801725
20
-61.320000080650985
30
0
40
3.6000000000000032
210
0
220
-0
230
1
0
CIRCLE
5
135
100
AcDbEntity
8
0
100
AcDbCircle
10
-27.700000017362001
20
-61.320000081010413
30
0
40
3.6000000000000032
210
0
220
-0
230
1
0
CIRCLE
5
136
100
AcDbEntity
8
0
100
AcDbCircle
10
-56.699999999999982
20
-61.320000081198565
30
0
40
3.6000000000000032
210
0
220
-0
230
1
0
CIRCLE
5
137
100
AcDbEntity
8
0
100
AcDbCircle
10
-107.11000003679219
20
-61.320000081525627
30
0
40
3.5999999999999943
210
0
220
-0
230
1
0
CIRCLE
5
138
100
AcDbEntity
8
0
100
AcDbCircle
10
69.999999788183501
20
-122.00000011051741
30
0
40
3.6000000000000032
210
0
220
-0
230
1
0
CIRCLE
5
139
100
AcDbEntity
8
0
100
AcDbCircle
10
69.999999743042281
20
-148.00000011051742
30
0
40
3.6000000000000032
210
0
220
-0
230
1
0
CIRCLE
5
140
100
AcDbEntity
8
0
100
AcDbCircle
10
-70.000000211816499
20
-121.99999986744929
30
0
40
3.6000000000000032
210
0
220
-0
230
1
0
CIRCLE
5
141
100
AcDbEntity
8
0
100
AcDbCircle
10
-136.11000040413342
20
-96.319999631932518
30
0
40
3.5999999999999943
210
0
220
-0
230
1
0
CIRCLE
5
142
100
AcDbEntity
8
0
100
AcDbCircle
10
-162.11000040413347
20
-96.319999537884797
30
0
40
3.5999999999999943
210
0
220
-0
230
1
0
CIRCLE
5
143
100
AcDbEntity
8
0
100
AcDbCircle
10
-70.000000256957719
20
-147.9999998674493
30
0
40
3.6000000000000032
210
0
220
-0
230
1
0
ENDSEC
0
SECTION
2
OBJECTS
0
DICTIONARY
5
C
100
AcDbDictionary
3
ACAD_GROUP
350
D
3
ACAD_MLINESTYLE
350
17
0
DICTIONARY
5
D
100
AcDbDictionary
0
DICTIONARY
5
1A
330
C
100
AcDbDictionary
0
DICTIONARY
5
17
100
AcDbDictionary
0
ENDSEC
0
EOF
